<svg xmlns="http://www.w3.org/2000/svg" viewBox="0 0 128 128" width="128" height="128">
  <defs>
    <linearGradient id="grad" x1="0%" y1="0%" x2="100%" y2="100%">
      <stop offset="0%" style="stop-color:#667eea;stop-opacity:1" />
      <stop offset="100%" style="stop-color:#764ba2;stop-opacity:1" />
    </linearGradient>
  </defs>
  <rect width="128" height="128" rx="24" fill="url(#grad)"/>
  <g transform="translate(24, 24)">
    <path d="M 40 10 C 38 10 36 12 36 14 L 36 66 C 36 68 38 70 40 70 L 60 70 C 62 70 64 68 64 66 L 64 14 C 64 12 62 10 60 10 L 40 10 Z M 40 15 L 60 15 L 60 65 L 40 65 L 40 15 Z" fill="white"/>
    <path d="M 15 20 C 13 20 11 22 11 24 L 11 76 C 11 78 13 80 15 80 L 35 80 C 37 80 39 78 39 76 L 39 24 C 39 22 37 20 35 20 L 15 20 Z M 15 25 L 35 25 L 35 75 L 15 75 L 15 25 Z" fill="white" opacity="0.7"/>
    <circle cx="22" cy="35" r="2" fill="#764ba2"/>
    <circle cx="28" cy="35" r="2" fill="#764ba2"/>
    <rect x="20" y="42" width="10" height="2" rx="1" fill="#764ba2"/>
    <rect x="20" y="48" width="10" height="2" rx="1" fill="#764ba2"/>
    <rect x="20" y="54" width="8" height="2" rx="1" fill="#764ba2"/>
    <circle cx="47" cy="28" r="2" fill="#667eea"/>
    <circle cx="53" cy="28" r="2" fill="#667eea"/>
    <rect x="45" y="35" width="10" height="2" rx="1" fill="#667eea"/>
    <rect x="45" y="41" width="10" height="2" rx="1" fill="#667eea"/>
    <rect x="45" y="47" width="8" height="2" rx="1" fill="#667eea"/>
  </g>
</svg>
